<svg xmlns="http://www.w3.org/2000/svg" xmlns:xlink="http://www.w3.org/1999/xlink" width="1080" zoomAndPan="magnify" viewBox="0 0 810 809.999993" height="1080" preserveAspectRatio="xMidYMid meet" version="1.2"><defs><clipPath id="5384d2be10"><path d="M 7.378906 42.800781 L 475 42.800781 L 475 463 L 7.378906 463 Z M 7.378906 42.800781 "/></clipPath><clipPath id="b614388076"><path d="M 335 42.800781 L 802.378906 42.800781 L 802.378906 463 L 335 463 Z M 335 42.800781 "/></clipPath><clipPath id="5b4e337c8c"><path d="M 7.378906 347 L 475 347 L 475 767 L 7.378906 767 Z M 7.378906 347 "/></clipPath><clipPath id="888506a900"><path d="M 335 347 L 802.378906 347 L 802.378906 767 L 335 767 Z M 335 347 "/></clipPath></defs><g id="92f8b4c6ce"><g clip-rule="nonzero" clip-path="url(#5384d2be10)"><path style=" stroke:none;fill-rule:nonzero;fill:#ff1091;fill-opacity:1;" d="M 240.644531 42.808594 C 208.800781 42.808594 182.980469 68.625 182.980469 100.464844 C 182.980469 132.3125 208.796875 158.128906 240.644531 158.128906 C 244.320312 158.128906 247.902344 157.773438 251.390625 157.121094 L 284.824219 215.039062 C 279.980469 220.652344 276.207031 227.214844 273.808594 234.410156 L 207.480469 234.410156 C 199.839844 211.511719 178.230469 195.007812 152.773438 195.007812 C 120.929688 195.007812 95.113281 220.824219 95.113281 252.664062 C 95.113281 267.285156 100.554688 280.636719 109.53125 290.804688 L 76.3125 348.335938 C 72.621094 347.59375 68.804688 347.203125 64.898438 347.203125 C 33.050781 347.207031 7.242188 373.019531 7.242188 404.863281 C 7.242188 436.707031 33.050781 462.523438 64.898438 462.523438 C 90.363281 462.523438 111.972656 446.011719 119.605469 423.121094 L 185.9375 423.121094 C 193.578125 446.015625 215.183594 462.523438 240.644531 462.523438 C 266.101562 462.523438 287.710938 446.011719 295.351562 423.121094 L 361.675781 423.121094 C 369.320312 446.015625 390.925781 462.523438 416.382812 462.523438 C 448.230469 462.523438 474.050781 436.707031 474.050781 404.863281 C 474.050781 373.019531 448.234375 347.207031 416.382812 347.207031 C 390.925781 347.207031 369.316406 363.707031 361.675781 386.605469 L 295.351562 386.605469 C 287.710938 363.707031 266.101562 347.207031 240.644531 347.207031 C 215.179688 347.207031 193.578125 363.707031 185.9375 386.605469 L 119.605469 386.605469 C 117.109375 379.113281 113.113281 372.304688 107.972656 366.535156 L 141.113281 309.144531 C 144.878906 309.917969 148.777344 310.324219 152.773438 310.324219 C 178.234375 310.324219 199.84375 293.824219 207.480469 270.925781 L 273.808594 270.925781 C 281.441406 293.824219 303.050781 310.324219 328.515625 310.324219 C 360.359375 310.324219 386.179688 284.507812 386.179688 252.667969 C 386.179688 220.824219 360.363281 195.007812 328.515625 195.007812 C 324.285156 195.007812 320.164062 195.464844 316.195312 196.332031 L 283.265625 139.304688 C 292.609375 129.0625 298.304688 115.433594 298.304688 100.472656 C 298.304688 68.625 272.488281 42.808594 240.644531 42.808594 "/></g><g clip-rule="nonzero" clip-path="url(#b614388076)"><path style=" stroke:none;fill-rule:nonzero;fill:#ff1091;fill-opacity:1;" d="M 569.0625 462.523438 C 600.910156 462.523438 626.726562 436.707031 626.726562 404.863281 C 626.726562 373.023438 600.914062 347.207031 569.0625 347.207031 C 565.386719 347.207031 561.800781 347.550781 558.316406 348.210938 L 524.882812 290.292969 C 529.722656 284.679688 533.5 278.117188 535.902344 270.925781 L 602.230469 270.925781 C 609.863281 293.824219 631.472656 310.324219 656.9375 310.324219 C 688.78125 310.324219 714.597656 284.507812 714.597656 252.667969 C 714.597656 238.046875 709.152344 224.695312 700.183594 214.527344 L 733.402344 156.996094 C 737.089844 157.738281 740.902344 158.128906 744.820312 158.128906 C 776.660156 158.128906 802.472656 132.316406 802.472656 100.464844 C 802.472656 68.621094 776.660156 42.804688 744.8125 42.804688 C 719.34375 42.804688 697.742188 59.3125 690.109375 82.207031 L 623.78125 82.207031 C 616.136719 59.308594 594.53125 42.804688 569.070312 42.804688 C 543.609375 42.804688 522 59.3125 514.367188 82.207031 L 448.035156 82.207031 C 440.394531 59.308594 418.789062 42.804688 393.328125 42.804688 C 361.484375 42.804688 335.660156 68.621094 335.660156 100.464844 C 335.660156 132.3125 361.484375 158.125 393.328125 158.125 C 418.792969 158.125 440.398438 141.625 448.035156 118.722656 L 514.363281 118.722656 C 521.996094 141.621094 543.601562 158.125 569.066406 158.125 C 594.53125 158.125 616.136719 141.625 623.773438 118.722656 L 690.109375 118.722656 C 692.605469 126.214844 696.601562 133.027344 701.738281 138.796875 L 668.605469 196.183594 C 664.84375 195.414062 660.941406 195.003906 656.9375 195.003906 C 631.476562 195.003906 609.867188 211.511719 602.234375 234.410156 L 535.90625 234.410156 C 528.265625 211.511719 506.664062 195.003906 481.199219 195.003906 C 449.355469 195.003906 423.535156 220.824219 423.535156 252.664062 C 423.535156 284.507812 449.351562 310.324219 481.199219 310.324219 C 485.429688 310.324219 489.550781 309.867188 493.515625 309 L 526.441406 366.027344 C 517.105469 376.269531 511.402344 389.898438 511.402344 404.859375 C 511.398438 436.707031 537.222656 462.523438 569.0625 462.523438 "/></g><g clip-rule="nonzero" clip-path="url(#5b4e337c8c)"><path style=" stroke:none;fill-rule:nonzero;fill:#ff1091;fill-opacity:1;" d="M 240.644531 766.921875 C 208.800781 766.921875 182.980469 741.109375 182.980469 709.265625 C 182.980469 677.421875 208.796875 651.59375 240.644531 651.59375 C 244.320312 651.59375 247.902344 651.945312 251.390625 652.605469 L 284.824219 594.691406 C 279.980469 589.074219 276.207031 582.511719 273.808594 575.324219 L 207.480469 575.324219 C 199.839844 598.222656 178.230469 614.722656 152.773438 614.722656 C 120.929688 614.722656 95.113281 588.910156 95.113281 557.0625 C 95.113281 542.441406 100.554688 529.089844 109.53125 518.925781 L 76.3125 461.394531 C 72.621094 462.136719 68.804688 462.523438 64.898438 462.523438 C 33.050781 462.523438 7.242188 436.707031 7.242188 404.863281 C 7.242188 373.023438 33.050781 347.207031 64.898438 347.207031 C 90.363281 347.207031 111.972656 363.707031 119.605469 386.609375 L 185.9375 386.609375 C 193.578125 363.710938 215.183594 347.207031 240.644531 347.207031 C 266.101562 347.207031 287.710938 363.707031 295.351562 386.609375 L 361.675781 386.609375 C 369.320312 363.710938 390.925781 347.207031 416.382812 347.207031 C 448.230469 347.207031 474.050781 373.023438 474.050781 404.863281 C 474.050781 436.707031 448.234375 462.523438 416.382812 462.523438 C 390.925781 462.523438 369.316406 446.015625 361.675781 423.121094 L 295.351562 423.121094 C 287.710938 446.019531 266.101562 462.523438 240.644531 462.523438 C 215.179688 462.523438 193.578125 446.015625 185.9375 423.121094 L 119.605469 423.121094 C 117.109375 430.621094 113.113281 437.425781 107.972656 443.195312 L 141.113281 500.582031 C 144.878906 499.8125 148.777344 499.402344 152.773438 499.402344 C 178.234375 499.402344 199.84375 515.90625 207.480469 538.800781 L 273.808594 538.800781 C 281.441406 515.90625 303.050781 499.402344 328.515625 499.402344 C 360.359375 499.402344 386.179688 525.214844 386.179688 557.0625 C 386.179688 588.90625 360.363281 614.722656 328.515625 614.722656 C 324.285156 614.722656 320.164062 614.269531 316.195312 613.402344 L 283.265625 670.429688 C 292.609375 680.671875 298.304688 694.304688 298.304688 709.265625 C 298.304688 741.109375 272.488281 766.921875 240.644531 766.921875 "/></g><g clip-rule="nonzero" clip-path="url(#888506a900)"><path style=" stroke:none;fill-rule:nonzero;fill:#ff1091;fill-opacity:1;" d="M 569.0625 347.207031 C 600.910156 347.207031 626.726562 373.019531 626.726562 404.863281 C 626.726562 436.707031 600.914062 462.523438 569.0625 462.523438 C 565.386719 462.523438 561.800781 462.179688 558.316406 461.515625 L 524.882812 519.433594 C 529.722656 525.046875 533.5 531.605469 535.902344 538.800781 L 602.230469 538.800781 C 609.863281 515.90625 631.472656 499.402344 656.9375 499.402344 C 688.78125 499.402344 714.597656 525.214844 714.597656 557.0625 C 714.597656 571.683594 709.152344 585.03125 700.183594 595.199219 L 733.402344 652.730469 C 737.089844 651.988281 740.902344 651.59375 744.820312 651.59375 C 776.660156 651.59375 802.476562 677.417969 802.476562 709.265625 C 802.476562 741.109375 776.664062 766.917969 744.820312 766.917969 C 719.347656 766.917969 697.746094 750.410156 690.113281 727.519531 L 623.78125 727.519531 C 616.136719 750.414062 594.535156 766.917969 569.074219 766.917969 C 543.609375 766.917969 522.003906 750.410156 514.371094 727.519531 L 448.035156 727.519531 C 440.394531 750.414062 418.789062 766.917969 393.328125 766.917969 C 361.484375 766.917969 335.660156 741.109375 335.660156 709.265625 C 335.660156 677.417969 361.484375 651.59375 393.328125 651.59375 C 418.792969 651.59375 440.398438 668.105469 448.035156 690.996094 L 514.363281 690.996094 C 521.996094 668.101562 543.601562 651.59375 569.066406 651.59375 C 594.53125 651.59375 616.136719 668.105469 623.773438 690.996094 L 690.109375 690.996094 C 692.605469 683.507812 696.601562 676.703125 701.738281 670.929688 L 668.605469 613.542969 C 664.84375 614.308594 660.941406 614.71875 656.9375 614.71875 C 631.476562 614.71875 609.867188 598.214844 602.234375 575.324219 L 535.90625 575.324219 C 528.265625 598.21875 506.664062 614.71875 481.199219 614.71875 C 449.355469 614.71875 423.535156 588.902344 423.535156 557.058594 C 423.535156 525.210938 449.351562 499.398438 481.199219 499.398438 C 485.429688 499.398438 489.550781 499.863281 493.515625 500.722656 L 526.441406 443.691406 C 517.105469 433.449219 511.402344 419.816406 511.402344 404.859375 C 511.398438 373.019531 537.222656 347.207031 569.0625 347.207031 "/></g></g></svg>